Ripped from YouTube. Not my work.

==================================
General Complete name :Andy Grammer - Keep Your Head Up.mp4 
Format : MPEG-4 
Format profile : Base Media / Version 2 
Codec ID : mp42 
File size : 122 MiB 
Duration : 3mn 15s 
Overall bit rate : 5,243 Kbps
==================================


Video Stream:
==================================

Format : AVC 

Format/Info : Advanced Video Codec 

Format profile : High@L4.0 

Format settings, CABAC : Yes 

Format settings, ReFrames : 1 frame 

Format settings, GOP : M=1, N=48 

Codec ID : avc1 

Codec ID/Info : Advanced Video Coding 

Duration : 3mn 15s 

Bit rate mode : Variable 

Bit rate : 5113 Kbps 

Maximum bit rate : 12.3 Mbps 

Width : 1920 pixels 

Height : 1080 pixels 

Display aspect ratio : 16:9 

Frame rate mode : Variable 

Frame rate : 23.976 fps 

Minimum frame rate : 17.241 fps 

Maximum frame rate : 24.390 fps 

Color space : YUV 

Chroma subsampling : 4:2:0 

Bit depth : 8 bits 

Scan type : Progressive 

Bits/(Pixel*Frame) : 0.103 

Stream size : 119 MiB (98%) 




Audio Stream:
====================================

Format : AAC 

Format/Info : Advanced Audio Codec 

Format profile : LC 

Codec ID : 40 

Duration : 3mn 15s 

Bit rate mode : Variable 

Bit rate : 124 Kbps 

Maximum bit rate : 196 Kbps 

Channel(s) : 2 channels 

Channel positions : Front: L R 

Sampling rate : 44.1 KHz 

Compression mode : Lossy 

Stream size : 2.89 MiB (2%) 

Title : (C) 2007 Google Inc. v08.13.2007.